<?xml version="1.0" encoding="UTF-8"?>
<svg version="1.1" xmlns="http://www.w3.org/2000/svg" width="293" height="130">
<path d="M0 0 C0.495 4.95 0.495 4.95 1 10 C4.22488038 10.8062201 6.31608074 11.1158058 9.53735352 11.08178711 C10.42830215 11.0752562 11.31925079 11.06872528 12.23719788 11.06199646 C13.19146164 11.05056107 14.1457254 11.03912567 15.12890625 11.02734375 C17.15299311 11.01470245 19.17708174 11.00234112 21.20117188 10.99023438 C24.38994848 10.9653663 27.57863364 10.93733162 30.76733398 10.90405273 C33.84619749 10.8739213 36.92494271 10.85610159 40.00390625 10.83984375 C40.96019424 10.82638412 41.91648224 10.8129245 42.90174866 10.79905701 C43.78954514 10.79567825 44.67734161 10.7922995 45.59204102 10.78881836 C46.37273453 10.78136093 47.15342804 10.7739035 47.95777893 10.76622009 C50 11 50 11 53 13 C53.28599346 16.14003713 53.37784161 19.08188693 53.34057617 22.22314453 C53.34123329 23.65735748 53.34123329 23.65735748 53.34190369 25.12054443 C53.33980806 28.29150579 53.31644045 31.46194313 53.29296875 34.6328125 C53.28737555 36.82713533 53.28310415 39.02146189 53.28010559 41.21578979 C53.26863511 46.99943329 53.23914893 52.78285182 53.20599365 58.56640625 C53.17534023 64.46481279 53.16161037 70.36325557 53.14648438 76.26171875 C53.11428139 87.84124484 53.06305843 99.42060373 53 111 C49.89913774 112.6413318 47.8826342 113.24397262 44.35498047 113.21118164 C43.44078339 113.20780289 42.5265863 113.20442413 41.58468628 113.20094299 C40.60541168 113.18748337 39.62613708 113.17402374 38.6171875 113.16015625 C37.60657257 113.15495468 36.59595764 113.14975311 35.55471802 113.14439392 C32.32799893 113.12658594 29.10159772 113.09540486 25.875 113.0625 C22.64129249 113.03490864 19.40762897 113.01020721 16.17385864 112.99131775 C14.16167167 112.979033 12.14950907 112.96140279 10.13742065 112.93800354 C9.22952789 112.93147263 8.32163513 112.92494171 7.38623047 112.91821289 C6.58555145 112.90995987 5.78487244 112.90170685 4.95993042 112.89320374 C2.92047664 112.87397578 2.92047664 112.87397578 1 114 C1 117.96 1 121.92 1 126 C-2.86683349 127.2889445 -4.17051859 126.30600811 -8 125 C-11.00494717 124.41243252 -14.03171919 123.9942127 -17.0625 123.5625 C-23.71647254 122.56589775 -30.22473794 121.34371867 -36.765625 119.75 C-40.47107054 118.89076625 -44.19673907 118.18366092 -47.9375 117.5 C-53.21914662 116.52771858 -58.49054474 115.52434486 -63.75 114.4375 C-64.85859375 114.20933594 -65.9671875 113.98117188 -67.109375 113.74609375 C-70 113 -70 113 -74 111 C-74 78.99 -74 46.98 -74 14 C-65.07036798 10.65138799 -65.07036798 10.65138799 -60.9375 10.4375 C-57.45570518 10.24631992 -54.45738392 9.55627464 -51.12182617 8.55493164 C-46.55058869 7.35939341 -41.84989028 6.73905381 -37.1875 6 C-28.74837558 4.6472036 -20.37306358 3.13782523 -12.01171875 1.3671875 C-11.24472656 1.20476563 -10.47773437 1.04234375 -9.6875 0.875 C-8.90761719 0.70742188 -8.12773438 0.53984375 -7.32421875 0.3671875 C-5 0 -5 0 0 0 Z M2 17 C0.78918149 20.10540926 0.78918149 20.10540926 1 24 C4.73437848 24.87867729 8.16774573 25.08912219 12 25 C12 27.97 12 30.94 12 34 C10.576875 34.12375 9.15375 34.2475 7.6875 34.375 C4.19426202 34.67875982 3.03525486 34.97649676 0 37 C0.33 38.32 0.66 39.64 1 41 C4.96 41 8.92 41 13 41 C12.67 43.97 12.34 46.94 12 50 C6.555 50.495 6.555 50.495 1 51 C0.01 53.475 0.01 53.475 -1 56 C0.81115956 57.81115956 3.61278227 57.38199448 6.0625 57.5625 C7.16722656 57.64628906 8.27195312 57.73007812 9.41015625 57.81640625 C10.26480469 57.87699219 11.11945313 57.93757813 12 58 C12 60.64 12 63.28 12 66 C10.96939453 66.05607422 10.96939453 66.05607422 9.91796875 66.11328125 C9.01691406 66.17902344 8.11585937 66.24476562 7.1875 66.3125 C6.29417969 66.37050781 5.40085937 66.42851563 4.48046875 66.48828125 C1.69396 67.06313581 0.75864246 67.8206856 -1 70 C-0.67 70.99 -0.34 71.98 0 73 C3.96 73.33 7.92 73.66 12 74 C12.33 76.97 12.66 79.94 13 83 C8.71 83 4.42 83 0 83 C-0.33 83.99 -0.66 84.98 -1 86 C-0.34 86.99 0.32 87.98 1 89 C3.6556728 89.58348752 3.6556728 89.58348752 6.625 89.6875 C7.62789062 89.75324219 8.63078125 89.81898437 9.6640625 89.88671875 C10.43492188 89.92410156 11.20578125 89.96148437 12 90 C12 92.97 12 95.94 12 99 C8.37 99 4.74 99 1 99 C-1.29255415 102.60482214 -1.29255415 102.60482214 -0.625 105.25 C-0.41875 105.8275 -0.2125 106.405 0 107 C2.87413546 107.82130142 5.41599822 108.12230589 8.40136719 108.11352539 C9.2619574 108.11344986 10.12254761 108.11337433 11.00921631 108.11329651 C11.92914368 108.10813522 12.84907104 108.10297394 13.796875 108.09765625 C14.74564514 108.0962413 15.69441528 108.09482635 16.67193604 108.09336853 C19.69798962 108.08777742 22.72396883 108.07522652 25.75 108.0625 C27.80338435 108.05748385 29.85676986 108.05292115 31.91015625 108.04882812 C36.94013276 108.03781089 41.97005378 108.02055233 47 108 C49.22425476 103.55262661 49.2715403 99.40215345 49.22705078 94.5378418 C49.22734283 93.6983046 49.22763489 92.8587674 49.22793579 91.99378967 C49.22654647 89.22882624 49.21100402 86.4641349 49.1953125 83.69921875 C49.19158096 81.77822517 49.18873465 79.85722969 49.18673706 77.93623352 C49.17911175 72.88755003 49.15947269 67.83898215 49.1373291 62.79034424 C49.1132439 56.72886291 49.10408444 50.66734285 49.09242249 44.60582733 C49.0730477 35.40380455 49.03471738 26.2020353 49 17 C33.49 17 17.98 17 2 17 Z " fill="#027033" transform="translate(75,2)"/>
<path d="M0 0 C0.33 3.3 0.66 6.6 1 10 C4.22488038 10.8062201 6.31608074 11.1158058 9.53735352 11.08178711 C10.42830215 11.0752562 11.31925079 11.06872528 12.23719788 11.06199646 C13.19146164 11.05056107 14.1457254 11.03912567 15.12890625 11.02734375 C17.15299311 11.01470245 19.17708174 11.00234112 21.20117188 10.99023438 C24.38994848 10.9653663 27.57863364 10.93733162 30.76733398 10.90405273 C33.84619749 10.8739213 36.92494271 10.85610159 40.00390625 10.83984375 C40.96019424 10.82638412 41.91648224 10.8129245 42.90174866 10.79905701 C43.78954514 10.79567825 44.67734161 10.7922995 45.59204102 10.78881836 C46.37273453 10.78136093 47.15342804 10.7739035 47.95777893 10.76622009 C50 11 50 11 53 13 C53.28599346 16.14003713 53.37784161 19.08188693 53.34057617 22.22314453 C53.34123329 23.65735748 53.34123329 23.65735748 53.34190369 25.12054443 C53.33980806 28.29150579 53.31644045 31.46194313 53.29296875 34.6328125 C53.28737555 36.82713533 53.28310415 39.02146189 53.28010559 41.21578979 C53.26863511 46.99943329 53.23914893 52.78285182 53.20599365 58.56640625 C53.17534023 64.46481279 53.16161037 70.36325557 53.14648438 76.26171875 C53.11428139 87.84124484 53.06305843 99.42060373 53 111 C49.89913774 112.6413318 47.8826342 113.24397262 44.35498047 113.21118164 C43.44078339 113.20780289 42.5265863 113.20442413 41.58468628 113.20094299 C40.60541168 113.18748337 39.62613708 113.17402374 38.6171875 113.16015625 C37.60657257 113.15495468 36.59595764 113.14975311 35.55471802 113.14439392 C32.32799893 113.12658594 29.10159772 113.09540486 25.875 113.0625 C22.64129249 113.03490864 19.40762897 113.01020721 16.17385864 112.99131775 C14.16167167 112.979033 12.14950907 112.96140279 10.13742065 112.93800354 C9.22952789 112.93147263 8.32163513 112.92494171 7.38623047 112.91821289 C6.18521194 112.90583336 6.18521194 112.90583336 4.95993042 112.89320374 C2.92047664 112.87397578 2.92047664 112.87397578 1 114 C1 117.96 1 121.92 1 126 C-0.32 126 -1.64 126 -3 126 C-2.01 125.505 -2.01 125.505 -1 125 C-1 121.37 -1 117.74 -1 114 C-1.66 114 -2.32 114 -3 114 C-2.67 112.35 -2.34 110.7 -2 109 C-1.34 109 -0.68 109 0 109 C0 108.34 0 107.68 0 107 C15.51 107 31.02 107 47 107 C47.73963724 101.82253934 48.13488556 97.08448858 48.09765625 91.90917969 C48.09619598 91.13269073 48.09473572 90.35620178 48.0932312 89.55618286 C48.08944689 87.88275254 48.08335355 86.20932613 48.07516479 84.53591156 C48.06233651 81.88812965 48.05586972 79.24039815 48.05102539 76.59259033 C48.03963547 70.97837079 48.02037341 65.36419318 48 59.75 C47.9763999 53.22887727 47.95602592 46.70777796 47.94406128 40.18662262 C47.93757467 37.57691792 47.92507096 34.96728569 47.91235352 32.35760498 C47.9087221 30.76281803 47.90537023 29.1680304 47.90234375 27.57324219 C47.89717743 26.84696625 47.89201111 26.12069031 47.88668823 25.37240601 C47.88636329 22.29725467 48.01912707 19.94261879 49 17 C33.49 17.33 17.98 17.66 2 18 C2 20.31 2 22.62 2 25 C1.01 25 0.02 25 -1 25 C-1.33 22.69 -1.66 20.38 -2 18 C-1.34 18 -0.68 18 0 18 C-0.66 14.04 -1.32 10.08 -2 6 C-2.66 6 -3.32 6 -4 6 C-4.66 5.34 -5.32 4.68 -6 4 C-7.98821313 3.60235737 -9.98944339 3.26224651 -12 3 C-11.67 2.34 -11.34 1.68 -11 1 C-7.19927641 0.13619918 -3.93447906 0 0 0 Z " fill="#046436" transform="translate(75,2)"/>
<path d="M0 0 C1.37478516 0.01740234 1.37478516 0.01740234 2.77734375 0.03515625 C3.69644531 0.04417969 4.61554687 0.05320313 5.5625 0.0625 C6.27277344 0.07410156 6.98304687 0.08570313 7.71484375 0.09765625 C6.54702731 3.32212719 5.10545489 6.3012225 3.48046875 9.3125 C3.07183594 10.08142578 2.66320312 10.85035156 2.2421875 11.64257812 C1.38875047 13.24114137 0.52143765 14.83237163 -0.359375 16.41601562 C-2.83810968 21.04041935 -2.83810968 21.04041935 -2.8046875 26.15234375 C-2.30324219 27.12429687 -1.80179688 28.09625 -1.28515625 29.09765625 C-0.98303223 29.72841064 -0.6809082 30.35916504 -0.36962891 31.0090332 C0.64516649 33.12007665 1.70460975 35.20301602 2.77734375 37.28515625 C6.59491132 44.73785895 6.59491132 44.73785895 7.71484375 48.09765625 C4.08484375 48.09765625 0.45484375 48.09765625 -3.28515625 48.09765625 C-3.70667969 47.02644531 -4.12820312 45.95523438 -4.5625 44.8515625 C-5.11574944 43.45437323 -5.66914227 42.05724074 -6.22265625 40.66015625 C-6.50044922 39.95310547 -6.77824219 39.24605469 -7.06445312 38.51757812 C-8.24737659 35.05091744 -8.24737659 35.05091744 -10.28515625 32.09765625 C-12.26515625 37.04765625 -14.24515625 41.99765625 -16.28515625 47.09765625 C-19.58515625 47.09765625 -22.88515625 47.09765625 -26.28515625 47.09765625 C-25.25672391 43.59661 -23.99946425 40.42319043 -22.26953125 37.22265625 C-21.90601563 36.5471875 -21.5425 35.87171875 -21.16796875 35.17578125 C-20.40915266 33.78374622 -19.63814782 32.39829041 -18.85546875 31.01953125 C-16.60231239 26.786165 -16.60231239 26.786165 -16.82421875 22.08203125 C-17.30632813 21.0971875 -17.7884375 20.11234375 -18.28515625 19.09765625 C-18.86078486 17.83208026 -19.43629904 16.56645223 -20.01171875 15.30078125 C-20.96574858 13.30129373 -21.92987861 11.30688106 -22.89453125 9.3125 C-25.28515625 4.30022321 -25.28515625 4.30022321 -25.28515625 2.09765625 C-21.98515625 2.09765625 -18.68515625 2.09765625 -15.28515625 2.09765625 C-14.93582031 3.02449219 -14.58648437 3.95132813 -14.2265625 4.90625 C-13.77152344 6.10378906 -13.31648438 7.30132812 -12.84765625 8.53515625 C-12.39519531 9.73011719 -11.94273438 10.92507812 -11.4765625 12.15625 C-10.57067365 14.94211348 -10.57067365 14.94211348 -9.28515625 16.09765625 C-8.86363281 15.02644531 -8.44210938 13.95523438 -8.0078125 12.8515625 C-7.45456306 11.45437323 -6.90117023 10.05724074 -6.34765625 8.66015625 C-6.06986328 7.95310547 -5.79207031 7.24605469 -5.50585938 6.51757812 C-2.96790823 0.12683369 -2.96790823 0.12683369 0 0 Z " fill="#F2FBF5" transform="translate(46.28515625,39.90234375)"/>
<path d="M0 0 C0.91644287 0.00523682 1.83288574 0.01047363 2.77709961 0.01586914 C3.76645508 0.0190918 4.75581055 0.02231445 5.77514648 0.02563477 C6.81606445 0.03401367 7.85698242 0.04239258 8.92944336 0.05102539 C10.49662109 0.05779297 10.49662109 0.05779297 12.09545898 0.06469727 C14.68600996 0.07652627 17.27644895 0.0930085 19.86694336 0.11352539 C20.24913103 1.76967196 20.58089438 3.43809563 20.86694336 5.11352539 C18.74768732 7.23278143 14.24733406 6.53183557 11.30444336 6.67602539 C10.49813477 6.71920898 9.69182617 6.76239258 8.86108398 6.80688477 C6.86325531 6.91327801 4.86512266 7.01393427 2.86694336 7.11352539 C2.53694336 11.07352539 2.20694336 15.03352539 1.86694336 19.11352539 C7.47694336 19.11352539 13.08694336 19.11352539 18.86694336 19.11352539 C18.86694336 21.09352539 18.86694336 23.07352539 18.86694336 25.11352539 C13.25694336 25.11352539 7.64694336 25.11352539 1.86694336 25.11352539 C1.86694336 30.06352539 1.86694336 35.01352539 1.86694336 40.11352539 C8.13694336 40.11352539 14.40694336 40.11352539 20.86694336 40.11352539 C20.86694336 42.09352539 20.86694336 44.07352539 20.86694336 46.11352539 C17.0544591 46.14239775 13.24200266 46.16028031 9.42944336 46.17602539 C8.34083008 46.1844043 7.2522168 46.1927832 6.13061523 46.20141602 C5.09614258 46.20463867 4.06166992 46.20786133 2.99584961 46.21118164 C2.03751221 46.21641846 1.0791748 46.22165527 0.09179688 46.22705078 C-2.13305664 46.11352539 -2.13305664 46.11352539 -3.13305664 45.11352539 C-3.23100975 43.73742657 -3.26103752 42.35638657 -3.26245117 40.97680664 C-3.26560333 40.09919678 -3.26875549 39.22158691 -3.27200317 38.31738281 C-3.26997894 37.36323486 -3.26795471 36.40908691 -3.26586914 35.42602539 C-3.26682587 34.45318604 -3.26778259 33.48034668 -3.26876831 32.47802734 C-3.26945022 30.41674739 -3.26759517 28.35546531 -3.26342773 26.29418945 C-3.25807965 23.12714851 -3.26337236 19.96024939 -3.26977539 16.79321289 C-3.26911461 14.79581674 -3.26783345 12.79842068 -3.26586914 10.80102539 C-3.26789337 9.84687744 -3.2699176 8.89272949 -3.27200317 7.90966797 C-3.26885101 7.03205811 -3.26569885 6.15444824 -3.26245117 5.25024414 C-3.26165558 4.47382568 -3.26085999 3.69740723 -3.26004028 2.89746094 C-3.07118876 0.24437168 -2.64861641 0.14096448 0 0 Z " fill="#046638" transform="translate(174.133056640625,41.886474609375)"/>
<path d="M0 0 C3.15292825 2.14534975 4.68531535 4.44158689 6 8 C6.42237684 11.08002888 6.38504146 13.9196683 6 17 C3.0751367 17.84191782 0.49258344 18.11819313 -2.546875 18.09765625 C-3.39121094 18.09443359 -4.23554688 18.09121094 -5.10546875 18.08789062 C-5.97816406 18.07951172 -6.85085938 18.07113281 -7.75 18.0625 C-8.63816406 18.05798828 -9.52632813 18.05347656 -10.44140625 18.04882812 C-12.62767329 18.037074 -14.81380179 18.02064249 -17 18 C-15.41145818 22.38118384 -13.96569014 24.41769014 -10 27 C-5.67044647 28.7552244 -2.68365482 27.38531428 1.42578125 25.69140625 C2.20501953 25.34916016 2.20501953 25.34916016 3 25 C3 27.31 3 29.62 3 32 C-2.76541889 33.9218063 -9.09012342 33.03804944 -15 32 C-18.66377311 29.99637408 -20.29764127 27.21316508 -22.375 23.625 C-23.94576691 17.02777899 -23.25537011 11.99135497 -20.23828125 5.98828125 C-15.75420299 -1.2117056 -7.71178354 -1.59318215 0 0 Z M-13 6 C-15.41382509 8.58029579 -16 9.4065708 -16 13 C-12.57310364 14.14229879 -10.38897782 13.90861076 -6.8125 13.5625 C-5.72582031 13.46066406 -4.63914062 13.35882813 -3.51953125 13.25390625 C-2.68808594 13.17011719 -1.85664063 13.08632812 -1 13 C-0.67 12.01 -0.34 11.02 0 10 C-1.70796448 7.34316636 -3.06056109 5.45456722 -5.9375 4.0625 C-8.78537783 3.97620067 -10.49617878 4.65178857 -13 6 Z " fill="#086639" transform="translate(276,55)"/>
<path d="M0 0 C1.98 0 3.96 0 6 0 C6.40992188 0.78246094 6.81984375 1.56492188 7.2421875 2.37109375 C7.78101563 3.38300781 8.31984375 4.39492188 8.875 5.4375 C9.40867188 6.44683594 9.94234375 7.45617188 10.4921875 8.49609375 C11.75654114 11.10140442 11.75654114 11.10140442 14 12 C14.2475 11.319375 14.495 10.63875 14.75 9.9375 C16.24197908 6.43134917 18.06835511 3.28379632 20 0 C21.98 0 23.96 0 26 0 C25.32748778 5.31379375 22.73537667 8.2896928 19.49609375 12.40234375 C17.7146307 15.49548456 17.71878831 17.48741029 18 21 C18.99 21.33 19.98 21.66 21 22 C22.421875 23.7421875 22.421875 23.7421875 23.75 25.875 C24.19859375 26.57367188 24.6471875 27.27234375 25.109375 27.9921875 C26 30 26 30 25 33 C22.375 33.125 22.375 33.125 19 32 C16.62522547 28.86037692 14.79101415 25.49946381 13 22 C12.13375 23.0828125 12.13375 23.0828125 11.25 24.1875 C10.5075 25.115625 9.765 26.04375 9 27 C8.38125 27.928125 7.7625 28.85625 7.125 29.8125 C5 32 5 32 1.75 32.3125 C0.8425 32.209375 -0.065 32.10625 -1 32 C0.50392851 28.66219949 2.49130773 26.05603918 4.75 23.1875 C7.58026525 19.22638983 7.58026525 19.22638983 7.875 14.4375 C5.38799041 9.87798243 2.35321603 5.95392586 -1 2 C-0.67 1.34 -0.34 0.68 0 0 Z " fill="#0A623A" transform="translate(198,55)"/>
<path d="M0 0 C0.66 1.65 1.32 3.3 2 5 C0.25 6.125 0.25 6.125 -2 7 C-2.598125 6.67 -3.19625 6.34 -3.8125 6 C-6.15635389 4.67262806 -6.15635389 4.67262806 -9.5625 5.6875 C-13.40257884 7.10734884 -13.40257884 7.10734884 -16 10 C-17.78602758 14.38388588 -17.45983331 19.8157918 -16.5 24.375 C-13.9717494 27.11393815 -10.63334453 27.68217265 -7 28 C-4.7142289 27.23396041 -4.7142289 27.23396041 -3 26 C-2.01 26 -1.02 26 0 26 C0 27.98 0 29.96 0 32 C-4.65258937 34.32629469 -11.05126489 32.89826706 -16 32 C-19.88151335 30.04684232 -22.30225329 27.72110855 -23.9375 23.6875 C-23.958125 22.800625 -23.97875 21.91375 -24 21 C-24.04769531 20.31808594 -24.09539062 19.63617188 -24.14453125 18.93359375 C-24.45510734 12.13542816 -22.94178637 7.53510998 -18.75 2.0625 C-13.83404128 -1.79463684 -5.91588937 -0.33869596 0 0 Z " fill="#096637" transform="translate(250,55)"/>
<path d="M0 0 C1.65 0 3.3 0 5 0 C5 16.17 5 32.34 5 49 C3.02 48.67 1.04 48.34 -1 48 C-1.02526945 41.3247966 -1.04283268 34.64960543 -1.05493164 27.97436523 C-1.05997325 25.70157409 -1.06680637 23.4287862 -1.07543945 21.15600586 C-1.08751261 17.89696449 -1.09322987 14.63796583 -1.09765625 11.37890625 C-1.10281754 10.35599991 -1.10797882 9.33309357 -1.11329651 8.27919006 C-1.11337204 7.33829025 -1.11344757 6.39739044 -1.11352539 5.42797852 C-1.115746 4.59524918 -1.11796661 3.76251984 -1.12025452 2.90455627 C-1 1 -1 1 0 0 Z " fill="#267A50" transform="translate(288,39)"/>
<path d="M0 0 C6.6 0 13.2 0 20 0 C22.25 7.875 22.25 7.875 21 11 C17.52085059 11.02887814 14.04173169 11.04675687 10.5625 11.0625 C9.07266602 11.07506836 9.07266602 11.07506836 7.55273438 11.08789062 C6.60849609 11.09111328 5.66425781 11.09433594 4.69140625 11.09765625 C3.81685791 11.10289307 2.94230957 11.10812988 2.04125977 11.11352539 C0 11 0 11 -1 10 C-1.23880597 2.47761194 -1.23880597 2.47761194 0 0 Z " fill="#036C30" transform="translate(93,26)"/>
<path d="M0 0 C6.6 0 13.2 0 20 0 C22 6 22 6 21 10 C14.07 10 7.14 10 0 10 C-1.36952673 7.26094655 -1.12621361 5.02912668 -1 2 C-0.67 1.34 -0.34 0.68 0 0 Z " fill="#016F30" transform="translate(93,59)"/>
<path d="M0 0 C6.6 0 13.2 0 20 0 C22 6 22 6 21 10 C14.07 10 7.14 10 0 10 C-1.36952673 7.26094655 -1.12621361 5.02912668 -1 2 C-0.67 1.34 -0.34 0.68 0 0 Z " fill="#08693F" transform="translate(93,43)"/>
<path d="M0 0 C6.6 0 13.2 0 20 0 C22 7 22 7 21 10 C14.07 10 7.14 10 0 10 C-1.36952673 7.26094655 -1.12621361 5.02912668 -1 2 C-0.67 1.34 -0.34 0.68 0 0 Z " fill="#09693F" transform="translate(93,75)"/>
<path d="M0 0 C3.31248187 -0.02888146 6.62493167 -0.04675799 9.9375 -0.0625 C10.88302734 -0.07087891 11.82855469 -0.07925781 12.80273438 -0.08789062 C14.15141602 -0.09272461 14.15141602 -0.09272461 15.52734375 -0.09765625 C16.77632446 -0.10551147 16.77632446 -0.10551147 18.05053711 -0.11352539 C20 0 20 0 21 1 C22.20481928 8.59036145 22.20481928 8.59036145 21 11 C14.07 10.67 7.14 10.34 0 10 C-1 2 -1 2 0 0 Z " fill="#016E30" transform="translate(93,91)"/>
<path d="M0 0 C-2.86520312 2.86520312 -6.0969064 4.01699865 -10 5 C-13.5 4.6875 -13.5 4.6875 -16 4 C-16 4.66 -16 5.32 -16 6 C-21.41294744 7.80431581 -27.30875243 7.59348232 -33 8 C-33 38.03 -33 68.06 -33 99 C-33.99 99.495 -33.99 99.495 -35 100 C-35 69.31 -35 38.62 -35 7 C-26.07036798 3.65138799 -26.07036798 3.65138799 -21.9375 3.4375 C-17.73869003 3.12194526 -14.03087947 2.26458964 -10 1 C-6.58386992 0.1866357 -3.51148139 -0.10032804 0 0 Z " fill="#03584C" transform="translate(36,9)"/>
<path d="M0 0 C2.11010742 0.13867188 2.11010742 0.13867188 5.11010742 2.13867188 C5.39611322 5.24874751 5.48797701 8.15873563 5.45068359 11.27001953 C5.45134071 12.68960213 5.45134071 12.68960213 5.45201111 14.13786316 C5.44991555 17.27636104 5.42654825 20.41432944 5.40307617 23.55273438 C5.39748295 25.72463692 5.39321156 27.89654325 5.39021301 30.06845093 C5.37874271 35.79291176 5.34925668 41.51714528 5.31610107 47.24151611 C5.28544727 53.07959925 5.27171772 58.91771901 5.2565918 64.75585938 C5.22438912 76.2168969 5.17316638 87.67776551 5.11010742 99.13867188 C4.78010742 99.13867188 4.45010742 99.13867188 4.11010742 99.13867188 C4.11010742 69.10867187 4.11010742 39.07867187 4.11010742 8.13867188 C3.45010742 8.13867188 2.79010742 8.13867188 2.11010742 8.13867188 C2.11010742 8.79867188 2.11010742 9.45867188 2.11010742 10.13867188 C1.45010742 9.80867188 0.79010742 9.47867187 0.11010742 9.13867188 C0.44010742 7.48867188 0.77010742 5.83867187 1.11010742 4.13867188 C-1.52989258 4.13867188 -4.16989258 4.13867188 -6.88989258 4.13867188 C-6.88989258 3.80867188 -6.88989258 3.47867187 -6.88989258 3.13867188 C-18.76989258 2.80867187 -30.64989258 2.47867187 -42.88989258 2.13867188 C-42.88989258 1.80867187 -42.88989258 1.47867187 -42.88989258 1.13867188 C-37.28485092 0.99545097 -31.67978905 0.85305828 -26.07470703 0.71142578 C-24.1687768 0.66314978 -22.26285224 0.61464931 -20.35693359 0.56591797 C-17.61402837 0.49582548 -14.87110361 0.42654593 -12.12817383 0.35742188 C-11.27902908 0.3355481 -10.42988434 0.31367432 -9.55500793 0.2911377 C-7.99603981 0.2521451 -6.43698015 0.21657898 -4.87783813 0.18530273 C-3.25116673 0.14714621 -1.62524881 0.07798778 0 0 Z " fill="#0E5F45" transform="translate(122.889892578125,12.861328125)"/>
<path d="M0 0 C15.84 0 31.68 0 48 0 C48 0.66 48 1.32 48 2 C35.79 2 23.58 2 11 2 C11 2.66 11 3.32 11 4 C24.2 4 37.4 4 51 4 C49 6 49 6 47.02661133 6.23377991 C46.2198999 6.22632248 45.41318848 6.21886505 44.58203125 6.21118164 C43.66768311 6.20780289 42.75333496 6.20442413 41.8112793 6.20094299 C40.82168213 6.18748337 39.83208496 6.17402374 38.8125 6.16015625 C37.79905518 6.15495468 36.78561035 6.14975311 35.74145508 6.14439392 C32.49415978 6.1265343 29.24717558 6.09535547 26 6.0625 C22.7528545 6.03492085 19.50575288 6.01020813 16.25854492 5.99131775 C14.23522949 5.97902288 12.21193841 5.96138305 10.1887207 5.93800354 C9.27437256 5.93147263 8.36002441 5.92494171 7.41796875 5.91821289 C6.20790161 5.90583336 6.20790161 5.90583336 4.97338867 5.89320374 C2.92247244 5.87283625 2.92247244 5.87283625 1 7 C1 10.96 1 14.92 1 19 C-0.32 19 -1.64 19 -3 19 C-2.34 18.67 -1.68 18.34 -1 18 C-1 14.37 -1 10.74 -1 7 C-1.66 7 -2.32 7 -3 7 C-2.67 5.35 -2.34 3.7 -2 2 C-1.34 2 -0.68 2 0 2 C0 1.34 0 0.68 0 0 Z " fill="#066135" transform="translate(75,109)"/>
<path d="M0 0 C0.66 0 1.32 0 2 0 C2 1.98 2 3.96 2 6 C-3.61 6 -9.22 6 -15 6 C-15 10.95 -15 15.9 -15 21 C-8.73 21 -2.46 21 4 21 C4 22.98 4 24.96 4 27 C0.18751574 27.02887236 -3.6249407 27.04675492 -7.4375 27.0625 C-8.52611328 27.07087891 -9.61472656 27.07925781 -10.73632812 27.08789062 C-11.77080078 27.09111328 -12.80527344 27.09433594 -13.87109375 27.09765625 C-14.82943115 27.10289307 -15.78776855 27.10812988 -16.77514648 27.11352539 C-19 27 -19 27 -20 26 C-20.04063832 24.33382885 -20.042721 22.66611905 -20 21 C-18.68 21 -17.36 21 -16 21 C-16 15.72 -16 10.44 -16 5 C-8.08 4.505 -8.08 4.505 0 4 C0 2.68 0 1.36 0 0 Z " fill="#0B6241" transform="translate(191,61)"/>
<path d="M0 0 C2.97 0 5.94 0 9 0 C9.09765625 6.93359375 9.09765625 6.93359375 9 9 C7.26043342 10.73956658 4.8063378 10.37190386 2.4375 10.5625 C1.42558594 10.64628906 0.41367188 10.73007812 -0.62890625 10.81640625 C-1.41136719 10.87699219 -2.19382812 10.93757813 -3 11 C-3.33 12.32 -3.66 13.64 -4 15 C-2.71802734 15.09087891 -2.71802734 15.09087891 -1.41015625 15.18359375 C-0.30542969 15.26738281 0.79929687 15.35117187 1.9375 15.4375 C3.03964844 15.51871094 4.14179687 15.59992187 5.27734375 15.68359375 C8 16 8 16 9 17 C9.1328125 18.8125 9.1328125 18.8125 9.125 21 C9.12886719 22.0828125 9.12886719 22.0828125 9.1328125 23.1875 C9 25 9 25 8 26 C5.98405418 26.23427778 3.961526 26.41336124 1.9375 26.5625 C0.28041016 26.68818359 0.28041016 26.68818359 -1.41015625 26.81640625 C-2.26480469 26.87699219 -3.11945313 26.93757813 -4 27 C-4 28.32 -4 29.64 -4 31 C-0.04 31.33 3.92 31.66 8 32 C8 32.33 8 32.66 8 33 C3.94020228 33.98419339 0.17300608 34.23183367 -4 34 C-4.99 33.34 -5.98 32.68 -7 32 C-6.67 29.69 -6.34 27.38 -6 25 C0.435 24.505 0.435 24.505 7 24 C7 21.69 7 19.38 7 17 C6.15695313 17.02320312 5.31390625 17.04640625 4.4453125 17.0703125 C2.80175781 17.09738281 2.80175781 17.09738281 1.125 17.125 C-0.51082031 17.15980469 -0.51082031 17.15980469 -2.1796875 17.1953125 C-5 17 -5 17 -7 15 C-5.52961672 10.3437863 -5.52961672 10.3437863 -3.21875 8.84375 C-0.7284107 7.89671956 1.09688099 7.79696709 3.75 7.875 C4.54921875 7.89304687 5.3484375 7.91109375 6.171875 7.9296875 C6.77515625 7.95289063 7.3784375 7.97609375 8 8 C8 6.02 8 4.04 8 2 C5.36 1.67 2.72 1.34 0 1 C0 0.67 0 0.34 0 0 Z " fill="#165D49" transform="translate(79,43)"/>
<path d="M0 0 C0.99 0 1.98 0 3 0 C3 14.85 3 29.7 3 45 C2.01 44.67 1.02 44.34 0 44 C0 29.48 0 14.96 0 0 Z " fill="#036D2A" transform="translate(289,41)"/>
<path d="M0 0 C0 2.97 0 5.94 0 9 C-6.435 9.495 -6.435 9.495 -13 10 C-12.37158027 13.9714169 -12.37158027 13.9714169 -10 16 C-11.32 15.67 -12.64 15.34 -14 15 C-14.66 12.69 -15.32 10.38 -16 8 C-15.54625 7.5875 -15.0925 7.175 -14.625 6.75 C-12.89092237 5.08736887 -12.89092237 5.08736887 -12.125 2.875 C-11 1 -11 1 -8.75 0.25 C-5.81594472 -0.0167323 -2.94459603 -0.06847898 0 0 Z " fill="#0E6944" transform="translate(88,76)"/>
<path d="M0 0 C1.33417969 0.02320312 1.33417969 0.02320312 2.6953125 0.046875 C4.875 0.25 4.875 0.25 5.875 1.25 C5.9729057 2.74738124 6.00474864 4.24942892 6 5.75 C6.00257812 6.5646875 6.00515625 7.379375 6.0078125 8.21875 C5.875 10.25 5.875 10.25 4.875 11.25 C3.35571962 11.32179964 1.83332518 11.33392007 0.3125 11.3125 C-0.51378906 11.30347656 -1.34007813 11.29445313 -2.19140625 11.28515625 C-2.82949219 11.27355469 -3.46757813 11.26195312 -4.125 11.25 C-4.125 10.26 -4.125 9.27 -4.125 8.25 C-5.115 7.92 -6.105 7.59 -7.125 7.25 C-8 5.375 -8 5.375 -8.125 3.25 C-5.78336652 0.01854579 -3.86178822 -0.11258858 0 0 Z " fill="#0D6E3F" transform="translate(82.125,25.75)"/>
<path d="M0 0 C11.20322825 -1.19678403 11.20322825 -1.19678403 15.19921875 1.46484375 C18.79319738 5.8594181 19.60784974 9.71792741 19.2109375 15.3125 C19.14132812 15.869375 19.07171875 16.42625 19 17 C15.84493858 17.93619813 13.03413498 18.1057123 9.75 18.0625 C8.85796875 18.05347656 7.9659375 18.04445313 7.046875 18.03515625 C6.37140625 18.02355469 5.6959375 18.01195313 5 18 C4.67 17.34 4.34 16.68 4 16 C7.63 16 11.26 16 15 16 C14.67 15.34 14.34 14.68 14 14 C9.38 14 4.76 14 0 14 C0 13.67 0 13.34 0 13 C5.94 12.505 5.94 12.505 12 12 C10.27468064 7.18884294 10.27468064 7.18884294 8 4 C10.88437779 5.29299694 12.87219421 6.65941363 15 9 C15.33 8.01 15.66 7.02 16 6 C15.34 6 14.68 6 14 6 C13.79632813 5.35546875 13.59265625 4.7109375 13.3828125 4.046875 C12.1332065 1.68846128 12.1332065 1.68846128 9.1796875 1.390625 C8.08914063 1.34421875 6.99859375 1.2978125 5.875 1.25 C4.23144531 1.16492187 4.23144531 1.16492187 2.5546875 1.078125 C1.71164062 1.05234375 0.86859375 1.0265625 0 1 C0 0.67 0 0.34 0 0 Z " fill="#136546" transform="translate(263,55)"/>
<path d="M0 0 C6.6 0 13.2 0 20 0 C22 6 22 6 21 10 C14.07 10 7.14 10 0 10 C-1.36952673 7.26094655 -1.12621361 5.02912668 -1 2 C-0.67 1.34 -0.34 0.68 0 0 Z M1 2 C1 3.98 1 5.96 1 8 C7.27 8 13.54 8 20 8 C20 6.35 20 4.7 20 3 C19.02667739 1.80658248 19.02667739 1.80658248 17.23413086 1.88647461 C16.48526611 1.89171143 15.73640137 1.89694824 14.96484375 1.90234375 C14.15595703 1.90556641 13.34707031 1.90878906 12.51367188 1.91210938 C11.66353516 1.92048828 10.81339844 1.92886719 9.9375 1.9375 C9.08349609 1.94201172 8.22949219 1.94652344 7.34960938 1.95117188 C5.23304337 1.96299627 3.11651315 1.98093231 1 2 Z " fill="#145A48" transform="translate(93,59)"/>
<path d="M0 0 C3.31248187 -0.02888146 6.62493167 -0.04675799 9.9375 -0.0625 C10.88302734 -0.07087891 11.82855469 -0.07925781 12.80273438 -0.08789062 C14.15141602 -0.09272461 14.15141602 -0.09272461 15.52734375 -0.09765625 C16.77632446 -0.10551147 16.77632446 -0.10551147 18.05053711 -0.11352539 C20 0 20 0 21 1 C22.01346983 6.8044181 22.01346983 6.8044181 22 9 C21.34 9.66 20.68 10.32 20 11 C19.67 8.36 19.34 5.72 19 3 C13.06 2.67 7.12 2.34 1 2 C1.33 3.65 1.66 5.3 2 7 C2.97582031 7.04898438 3.95164062 7.09796875 4.95703125 7.1484375 C6.86548828 7.26058594 6.86548828 7.26058594 8.8125 7.375 C10.07707031 7.44460937 11.34164062 7.51421875 12.64453125 7.5859375 C16 8 16 8 19 10 C12.73 10 6.46 10 0 10 C-1 2 -1 2 0 0 Z " fill="#11614B" transform="translate(93,91)"/>
<path d="M0 0 C1.28132813 0.00902344 2.56265625 0.01804688 3.8828125 0.02734375 C4.87023437 0.03894531 5.85765625 0.05054688 6.875 0.0625 C7.535 1.7125 8.195 3.3625 8.875 5.0625 C9.535 5.0625 10.195 5.0625 10.875 5.0625 C10.545 6.3825 10.215 7.7025 9.875 9.0625 C9.545 8.0725 9.215 7.0825 8.875 6.0625 C4.95097191 4.41988359 1.05684884 3.72779413 -3.125 3.0625 C-3.785 2.7325 -4.445 2.4025 -5.125 2.0625 C-7.08689209 5.7303852 -8.51801257 8.93498551 -9.125 13.0625 C-10.445 13.0625 -11.765 13.0625 -13.125 13.0625 C-12.6270163 9.32762223 -12.25008244 7.25012365 -10.125 4.0625 C-9.465 4.0625 -8.805 4.0625 -8.125 4.0625 C-8.455 3.0725 -8.785 2.0825 -9.125 1.0625 C-6.12186252 -0.43906874 -3.33432478 -0.03031204 0 0 Z " fill="#04682E" transform="translate(268.125,55.9375)"/>
<path d="M0 0 C3.63 0.33 7.26 0.66 11 1 C11 1.33 11 1.66 11 2 C7.7 2 4.4 2 1 2 C1 4.31 1 6.62 1 9 C7.27 9 13.54 9 20 9 C20 6.69 20 4.38 20 2 C18.68 1.67 17.36 1.34 16 1 C17.32 0.67 18.64 0.34 20 0 C22.27678571 6.96428571 22.27678571 6.96428571 21 11 C17.52085059 11.02887814 14.04173169 11.04675687 10.5625 11.0625 C9.07266602 11.07506836 9.07266602 11.07506836 7.55273438 11.08789062 C6.60849609 11.09111328 5.66425781 11.09433594 4.69140625 11.09765625 C3.81685791 11.10289307 2.94230957 11.10812988 2.04125977 11.11352539 C0 11 0 11 -1 10 C-1.23880597 2.47761194 -1.23880597 2.47761194 0 0 Z " fill="#176A52" transform="translate(93,26)"/>
<path d="M0 0 C2.03979492 0.08789062 2.03979492 0.08789062 3.91479492 1.27539062 C5.03979492 3.08789063 5.03979492 3.08789063 4.72729492 5.77539062 C4.50041992 6.53851563 4.27354492 7.30164063 4.03979492 8.08789062 C3.37979492 8.08789062 2.71979492 8.08789062 2.03979492 8.08789062 C2.03979492 8.74789063 2.03979492 9.40789063 2.03979492 10.08789062 C1.37979492 9.75789063 0.71979492 9.42789062 0.03979492 9.08789062 C0.36979492 7.43789063 0.69979492 5.78789062 1.03979492 4.08789062 C-1.60020508 4.08789062 -4.24020508 4.08789062 -6.96020508 4.08789062 C-6.96020508 3.75789063 -6.96020508 3.42789062 -6.96020508 3.08789062 C-18.84020508 2.75789062 -30.72020508 2.42789062 -42.96020508 2.08789062 C-42.96020508 1.75789062 -42.96020508 1.42789062 -42.96020508 1.08789062 C-37.35516342 0.94466972 -31.75010155 0.80227703 -26.14501953 0.66064453 C-24.2390893 0.61236853 -22.33316474 0.56386806 -20.42724609 0.51513672 C-17.68434087 0.44504423 -14.94141611 0.37576468 -12.19848633 0.30664062 C-11.34934158 0.28476685 -10.50019684 0.26289307 -9.62532043 0.24035645 C-8.06779201 0.20139986 -6.51020034 0.16485517 -4.95254517 0.13134766 C-3.301509 0.09533516 -1.65070145 0.04901052 0 0 Z " fill="#166C47" transform="translate(122.960205078125,12.912109375)"/>
<path d="M0 0 C6.15234375 -0.09765625 6.15234375 -0.09765625 8 0 C9 1 9 1 9.09765625 3.28515625 C9.04882812 7.14257812 9.04882812 7.14257812 9 11 C5.04 11 1.08 11 -3 11 C-4.21081851 14.10540926 -4.21081851 14.10540926 -4 18 C-4.66 18 -5.32 18 -6 18 C-6.125 11.25 -6.125 11.25 -5 9 C-1.7 9 1.6 9 5 9 C4.67 7.02 4.34 5.04 4 3 C2.68 2.67 1.36 2.34 0 2 C0 1.34 0 0.68 0 0 Z " fill="#116242" transform="translate(79,91)"/>
<path d="M0 0 C1.000811 0.00007553 2.00162201 0.00015106 3.03276062 0.00022888 C4.11096573 0.00539017 5.18917084 0.01055145 6.30004883 0.01586914 C7.40560623 0.01728409 8.51116364 0.01869904 9.65022278 0.02015686 C13.18586925 0.02576025 16.7214527 0.03831335 20.25708008 0.05102539 C22.65226146 0.05603995 25.04744383 0.06060294 27.44262695 0.06469727 C33.31829955 0.07573078 39.19393531 0.09247223 45.06958008 0.11352539 C43.06958008 2.11352539 43.06958008 2.11352539 41.09619141 2.3473053 C40.28947998 2.33984787 39.48276855 2.33239044 38.65161133 2.32470703 C37.73726318 2.32132828 36.82291504 2.31794952 35.88085938 2.31446838 C34.89126221 2.30100876 33.90166504 2.28754913 32.88208008 2.27368164 C31.86863525 2.26848007 30.85519043 2.2632785 29.81103516 2.25791931 C26.56373986 2.24005969 23.31675566 2.20888086 20.06958008 2.17602539 C16.82243458 2.14844624 13.57533295 2.12373352 10.328125 2.10484314 C8.30480957 2.09254827 6.28151849 2.07490844 4.25830078 2.05152893 C3.34395264 2.04499802 2.42960449 2.0384671 1.48754883 2.03173828 C0.27748169 2.01935875 0.27748169 2.01935875 -0.95703125 2.00672913 C-3.00794748 1.98636164 -3.00794748 1.98636164 -4.93041992 3.11352539 C-4.93041992 7.07352539 -4.93041992 11.03352539 -4.93041992 15.11352539 C-6.25041992 15.11352539 -7.57041992 15.11352539 -8.93041992 15.11352539 C-8.27041992 14.78352539 -7.61041992 14.45352539 -6.93041992 14.11352539 C-7.26041992 9.82352539 -7.59041992 5.53352539 -7.93041992 1.11352539 C-4.97643234 0.12886286 -3.0779297 -0.00775297 0 0 Z " fill="#0A5B41" transform="translate(80.930419921875,112.886474609375)"/>
<path d="M0 0 C0.91644287 0.00523682 1.83288574 0.01047363 2.77709961 0.01586914 C3.76645508 0.0190918 4.75581055 0.02231445 5.77514648 0.02563477 C6.81606445 0.03401367 7.85698242 0.04239258 8.92944336 0.05102539 C10.49662109 0.05779297 10.49662109 0.05779297 12.09545898 0.06469727 C14.68600996 0.07652627 17.27644895 0.0930085 19.86694336 0.11352539 C20.19694336 1.76352539 20.52694336 3.41352539 20.86694336 5.11352539 C19.87694336 5.60852539 19.87694336 5.60852539 18.86694336 6.11352539 C18.86694336 5.12352539 18.86694336 4.13352539 18.86694336 3.11352539 C9.46194336 3.60852539 9.46194336 3.60852539 -0.13305664 4.11352539 C-1.54940497 6.94622205 -1.47935714 9.58818977 -1.69555664 12.73852539 C-1.7793457 13.92704102 -1.86313477 15.11555664 -1.94946289 16.34008789 C-2.01004883 17.25532227 -2.07063477 18.17055664 -2.13305664 19.11352539 C-2.46305664 19.11352539 -2.79305664 19.11352539 -3.13305664 19.11352539 C-3.15989651 16.13429946 -3.17981701 13.15531244 -3.19555664 10.17602539 C-3.20393555 9.32588867 -3.21231445 8.47575195 -3.22094727 7.59985352 C-3.22416992 6.7909668 -3.22739258 5.98208008 -3.23071289 5.14868164 C-3.23594971 4.39981689 -3.24118652 3.65095215 -3.24658203 2.87939453 C-3.07663838 0.23594845 -2.63393815 0.14018327 0 0 Z " fill="#0C5E49" transform="translate(174.133056640625,41.886474609375)"/>
<path d="M0 0 C0.66 0.66 1.32 1.32 2 2 C4.31648799 3.03842565 6.64903024 4.0421975 9 5 C9 5.99 9 6.98 9 8 C6.47833533 7.54591873 3.95774184 7.0868593 1.4375 6.625 C0.38079102 6.43550781 0.38079102 6.43550781 -0.69726562 6.2421875 C-5.22714697 5.40718633 -9.59030133 4.33276044 -14 3 C-12.125 1.9375 -12.125 1.9375 -10 1 C-9.34 1.33 -8.68 1.66 -8 2 C-5 2.25 -5 2.25 -2 2 C-1.34 1.34 -0.68 0.68 0 0 Z " fill="#026930" transform="translate(61,120)"/>
<path d="M0 0 C0.33 3.3 0.66 6.6 1 10 C1.99 10.33 2.98 10.66 4 11 C4 11.66 4 12.32 4 13 C2.125 12.6875 2.125 12.6875 0 12 C-2 9 -2 9 -2 6 C-2.66 6 -3.32 6 -4 6 C-4.66 5.34 -5.32 4.68 -6 4 C-7.98821313 3.60235737 -9.98944339 3.26224651 -12 3 C-11.67 2.34 -11.34 1.68 -11 1 C-7.19927641 0.13619918 -3.93447906 0 0 0 Z " fill="#0D6447" transform="translate(75,2)"/>
<path d="M0 0 C0 2.31 0 4.62 0 7 C-3.42689636 8.14229879 -5.61102218 7.90861076 -9.1875 7.5625 C-10.81751953 7.40974609 -10.81751953 7.40974609 -12.48046875 7.25390625 C-13.31191406 7.17011719 -14.14335937 7.08632812 -15 7 C-15 6.67 -15 6.34 -15 6 C-14.195625 5.87625 -13.39125 5.7525 -12.5625 5.625 C-11.716875 5.41875 -10.87125 5.2125 -10 5 C-9.67 4.34 -9.34 3.68 -9 3 C-7.1875 2.1484375 -7.1875 2.1484375 -5 1.375 C-4.278125 1.11460938 -3.55625 0.85421875 -2.8125 0.5859375 C-1 0 -1 0 0 0 Z " fill="#0B5B3A" transform="translate(279,80)"/>
<path d="M0 0 C0.66 1.32 1.32 2.64 2 4 C2.66 4 3.32 4 4 4 C4.66 2.68 5.32 1.36 6 0 C6.12375 1.2375 6.2475 2.475 6.375 3.75 C6.77034024 6.8523227 7.13271814 9.40655297 9 12 C9.99 12.33 10.98 12.66 12 13 C9 14 9 14 6 13 C5.6278958 11.67696283 5.29369827 10.34262065 5 9 C4.34 8.67 3.68 8.34 3 8 C2.34 9.32 1.68 10.64 1 12 C0.01751476 7.9472484 -0.08159574 4.16138263 0 0 Z " fill="#126843" transform="translate(226,69)"/>
<path d="M0 0 C4.29 0 8.58 0 13 0 C13 0.33 13 0.66 13 1 C9.37 1.33 5.74 1.66 2 2 C2 3.32 2 4.64 2 6 C5.96 6.33 9.92 6.66 14 7 C14 7.33 14 7.66 14 8 C9.94020228 8.98419339 6.17300608 9.23183367 2 9 C1.01 8.34 0.02 7.68 -1 7 C-0.67 4.69 -0.34 2.38 0 0 Z " fill="#0E5D48" transform="translate(73,68)"/>
<path d="M0 0 C0 1.98 0 3.96 0 6 C-3.05269846 7.52634923 -5.75845689 6.83794444 -9.125 6.5625 C-10.40632812 6.46066406 -11.68765625 6.35882813 -13.0078125 6.25390625 C-13.99523437 6.17011719 -14.98265625 6.08632812 -16 6 C-16 5.67 -16 5.34 -16 5 C-13.36 5 -10.72 5 -8 5 C-7.67 4.01 -7.34 3.02 -7 2 C-4.39757586 0.35179805 -3.13751221 0 0 0 Z " fill="#0E5B3D" transform="translate(250,81)"/>
<path d="M0 0 C1.98 0 3.96 0 6 0 C6.33 2.97 6.66 5.94 7 9 C4.33333333 7.66666667 1.66666667 6.33333333 -1 5 C-0.67 3.35 -0.34 1.7 0 0 Z " fill="#026E2E" transform="translate(208,68)"/>
<path d="M0 0 C4.62 0 9.24 0 14 0 C14 1.32 14 2.64 14 4 C9.38 4 4.76 4 0 4 C0 2.68 0 1.36 0 0 Z " fill="#0F743D" transform="translate(177,61)"/>
<path d="M0 0 C1.32 0.33 2.64 0.66 4 1 C4 1.66 4 2.32 4 3 C10.27 3.33 16.54 3.66 23 4 C23.33 2.68 23.66 1.36 24 0 C24 1.98 24 3.96 24 6 C20.18751574 6.02887236 16.3750593 6.04675492 12.5625 6.0625 C11.47388672 6.07087891 10.38527344 6.07925781 9.26367188 6.08789062 C8.22919922 6.09111328 7.19472656 6.09433594 6.12890625 6.09765625 C5.17056885 6.10289307 4.21223145 6.10812988 3.22485352 6.11352539 C1 6 1 6 0 5 C-0.04063832 3.33382885 -0.042721 1.66611905 0 0 Z " fill="#114E46" transform="translate(171,82)"/>
<path d="M0 0 C5.61 0 11.22 0 17 0 C17 0.99 17 1.98 17 3 C14.3753399 3.19430855 11.75053235 3.38073238 9.125 3.5625 C8.00544922 3.64661133 8.00544922 3.64661133 6.86328125 3.73242188 C1.2265625 4.11328125 1.2265625 4.11328125 -1 3 C-0.67 2.01 -0.34 1.02 0 0 Z " fill="#036D2D" transform="translate(261,68)"/>
<path d="M0 0 C1.96630396 2.94945594 3.25740853 5.73697474 4.625 9 C5.29402344 10.5778125 5.29402344 10.5778125 5.9765625 12.1875 C7 15 7 15 7 18 C6.34 18 5.68 18 5 18 C3.68 14.7 2.36 11.4 1 8 C0.34 8 -0.32 8 -1 8 C-2.2077558 4.37673261 -1.54311128 3.35853631 0 0 Z " fill="#227145" transform="translate(36,70)"/>
<path d="M0 0 C0.66 0 1.32 0 2 0 C2 0.66 2 1.32 2 2 C1.525625 2.391875 1.05125 2.78375 0.5625 3.1875 C-1.76796052 5.8908342 -1.74233275 8.52149209 -2 12 C-1.67 12.33 -1.34 12.66 -1 13 C-0.95936168 14.66617115 -0.957279 16.33388095 -1 18 C-2.32 18 -3.64 18 -5 18 C-5.48321946 11.35573245 -4.18443566 6.84452648 -1 1 C-0.67 0.67 -0.34 0.34 0 0 Z " fill="#0A6B45" transform="translate(258,58)"/>
<path d="M0 0 C0 1.65 0 3.3 0 5 C-2.97 5 -5.94 5 -9 5 C-5.28508772 -1.58552632 -5.28508772 -1.58552632 0 0 Z " fill="#026F2F" transform="translate(87,78)"/>
<path d="M0 0 C1.65 0.99 3.3 1.98 5 3 C4.40138258 5.35171131 3.73075648 7.6859378 3 10 C2.01 10.495 2.01 10.495 1 11 C0.01 8.03 -0.98 5.06 -2 2 C-1.34 1.34 -0.68 0.68 0 0 Z " fill="#166D3C" transform="translate(35,46)"/>
<path d="M0 0 C5.26514889 -0.18155686 9.02691039 0.09541249 14 2 C16.32514617 2.69801548 18.66210594 3.34538966 21 4 C21 4.33 21 4.66 21 5 C6.31199313 3.39767198 6.31199313 3.39767198 0 0 Z " fill="#0D5E43" transform="translate(22,117)"/>
<path d="M0 0 C6.625 -0.125 6.625 -0.125 10 1 C10.33 1.99 10.66 2.98 11 4 C7.75 4.8125 7.75 4.8125 4 5 C1.5625 2.5625 1.5625 2.5625 0 0 Z " fill="#096C2E" transform="translate(259,82)"/>
<path d="M0 0 C4.95 0.33 9.9 0.66 15 1 C14.34 2.32 13.68 3.64 13 5 C12.175 4.67 11.35 4.34 10.5 4 C6.4126017 2.83217191 3.23076656 2.8541115 -1 3 C-0.67 2.01 -0.34 1.02 0 0 Z " fill="#03591E" transform="translate(237,57)"/>
<path d="M0 0 C1.51400391 0.01740234 1.51400391 0.01740234 3.05859375 0.03515625 C4.07050781 0.04417969 5.08242188 0.05320312 6.125 0.0625 C7.29869141 0.07990234 7.29869141 0.07990234 8.49609375 0.09765625 C8.49609375 0.75765625 8.49609375 1.41765625 8.49609375 2.09765625 C5.07376403 3.23843282 2.40936158 3.19580742 -1.19140625 3.16015625 C-2.96064453 3.14662109 -2.96064453 3.14662109 -4.765625 3.1328125 C-5.66925781 3.12121094 -6.57289063 3.10960937 -7.50390625 3.09765625 C-6.86453125 2.78828125 -6.22515625 2.47890625 -5.56640625 2.16015625 C-1.48563778 0.05794219 -1.48563778 0.05794219 0 0 Z " fill="#0C6348" transform="translate(11.50390625,12.90234375)"/>
<path d="M0 0 C1.37478516 0.01740234 1.37478516 0.01740234 2.77734375 0.03515625 C3.69644531 0.04417969 4.61554687 0.05320313 5.5625 0.0625 C6.27277344 0.07410156 6.98304687 0.08570313 7.71484375 0.09765625 C7.38484375 0.75765625 7.05484375 1.41765625 6.71484375 2.09765625 C5.60109375 2.20078125 4.48734375 2.30390625 3.33984375 2.41015625 C-0.44401054 2.69308746 -0.44401054 2.69308746 -2.09765625 5.66015625 C-2.68546875 6.86671875 -2.68546875 6.86671875 -3.28515625 8.09765625 C-3.94515625 8.09765625 -4.60515625 8.09765625 -5.28515625 8.09765625 C-3.11298644 0.13303361 -3.11298644 0.13303361 0 0 Z " fill="#B6DBC4" transform="translate(46.28515625,39.90234375)"/>
<path d="M0 0 C0 0.99 0 1.98 0 3 C-1.2065625 3.433125 -1.2065625 3.433125 -2.4375 3.875 C-5.1326468 4.73262568 -5.1326468 4.73262568 -6 7 C-6.66 7 -7.32 7 -8 7 C-6.4365884 2.43002763 -5.27390657 0 0 0 Z " fill="#FBFCFB" transform="translate(51,41)"/>
<path d="M0 0 C1.09570312 0.28746094 2.19140625 0.57492188 3.3203125 0.87109375 C4.16335937 1.09925781 5.00640625 1.32742187 5.875 1.5625 C5.875 2.2225 5.875 2.8825 5.875 3.5625 C3.72770859 3.28176927 1.58216807 2.98761501 -0.5625 2.6875 C-1.75746094 2.52507812 -2.95242187 2.36265625 -4.18359375 2.1953125 C-5.15425781 1.98648438 -6.12492187 1.77765625 -7.125 1.5625 C-7.455 0.9025 -7.785 0.2425 -8.125 -0.4375 C-5.13816063 -1.93091969 -3.17339022 -0.84398676 0 0 Z " fill="#076148" transform="translate(55.125,122.4375)"/>
<path d="M0 0 C1.32 0.99 2.64 1.98 4 3 C3.67 3.66 3.34 4.32 3 5 C2.01 5 1.02 5 0 5 C0.99 6.32 1.98 7.64 3 9 C-0.36720387 7.60667426 -1.9859524 6.0210714 -4 3 C-2.68 2.01 -1.36 1.02 0 0 Z " fill="#0A5937" transform="translate(260,78)"/>
<path d="M0 0 C0.66 0 1.32 0 2 0 C2 1.98 2 3.96 2 6 C-1.96 6 -5.92 6 -10 6 C-6.3558226 3.5705484 -4.28758728 3.83820425 0 4 C0 2.68 0 1.36 0 0 Z " fill="#0A4C3A" transform="translate(191,61)"/>
<path d="M0 0 C0.33 1.32 0.66 2.64 1 4 C1.99 3.67 2.98 3.34 4 3 C5.32 3.99 6.64 4.98 8 6 C4.7 6 1.4 6 -2 6 C-1.34 4.02 -0.68 2.04 0 0 Z " fill="#C3E7D0" transform="translate(22,81)"/>
<path d="M0 0 C1.98 0 3.96 0 6 0 C5.45276317 3.37462715 4.9451 5.08235 3 8 C2.01 7.67 1.02 7.34 0 7 C0.33 6.01 0.66 5.02 1 4 C1.99 4 2.98 4 4 4 C4 3.01 4 2.02 4 1 C2.68 1.33 1.36 1.66 0 2 C0 1.34 0 0.68 0 0 Z " fill="#145F42" transform="translate(218,55)"/>
<path d="M0 0 C1.2065625 0.0309375 1.2065625 0.0309375 2.4375 0.0625 C2.7675 1.7125 3.0975 3.3625 3.4375 5.0625 C2.1175 5.3925 0.7975 5.7225 -0.5625 6.0625 C-0.5625 5.4025 -0.5625 4.7425 -0.5625 4.0625 C-2.02083358 2.43735532 -2.02083358 2.43735532 -3.5625 1.0625 C-2.5625 0.0625 -2.5625 0.0625 0 0 Z " fill="#01652D" transform="translate(70.5625,121.9375)"/>
<path d="M0 0 C1.65 0 3.3 0 5 0 C5 0.99 5 1.98 5 3 C4.01 3.33 3.02 3.66 2 4 C2 4.99 2 5.98 2 7 C1.01 7 0.02 7 -1 7 C-0.67 4.69 -0.34 2.38 0 0 Z " fill="#056529" transform="translate(217,56)"/>
<path d="M0 0 C3.3 0 6.6 0 10 0 C10 0.66 10 1.32 10 2 C10.66 2.33 11.32 2.66 12 3 C10.56163249 2.88541307 9.12429034 2.75790884 7.6875 2.625 C6.88699219 2.55539063 6.08648437 2.48578125 5.26171875 2.4140625 C3 2 3 2 0 0 Z " fill="#0C6542" transform="translate(4,113)"/>
<path d="M0 0 C1.4540625 0.0309375 1.4540625 0.0309375 2.9375 0.0625 C2.9375 0.7225 2.9375 1.3825 2.9375 2.0625 C1.9475 2.0625 0.9575 2.0625 -0.0625 2.0625 C-0.3925 3.3825 -0.7225 4.7025 -1.0625 6.0625 C-2.0525 4.4125 -3.0425 2.7625 -4.0625 1.0625 C-3.0625 0.0625 -3.0625 0.0625 0 0 Z " fill="#115A46" transform="translate(201.0625,54.9375)"/>
<path d="M0 0 C0.66 0.66 1.32 1.32 2 2 C1 3 1 3 -1.72265625 3.09765625 C-3.37587891 3.08025391 -3.37587891 3.08025391 -5.0625 3.0625 C-6.16722656 3.05347656 -7.27195313 3.04445313 -8.41015625 3.03515625 C-9.69212891 3.01775391 -9.69212891 3.01775391 -11 3 C-11 2.67 -11 2.34 -11 2 C-9.21128822 1.61114961 -7.41887126 1.23930804 -5.625 0.875 C-4.62726562 0.66617187 -3.62953125 0.45734375 -2.6015625 0.2421875 C-1.74304687 0.16226562 -0.88453125 0.08234375 0 0 Z " fill="#054C41" transform="translate(48,6)"/>
<path d="M0 0 C3.3 0 6.6 0 10 0 C10.33 1.32 10.66 2.64 11 4 C10.01 4 9.02 4 8 4 C7.67 3.34 7.34 2.68 7 2 C4.69 2 2.38 2 0 2 C0 1.34 0 0.68 0 0 Z " fill="#DAF8E6" transform="translate(21,42)"/>
<path d="M0 0 C0.66 0 1.32 0 2 0 C2 2.64 2 5.28 2 8 C1.01 8.495 1.01 8.495 0 9 C-0.66 8.34 -1.32 7.68 -2 7 C-1.34 7 -0.68 7 0 7 C0 4.69 0 2.38 0 0 Z " fill="#1E6B43" transform="translate(86,60)"/>
<path d="M0 0 C1.32 0.66 2.64 1.32 4 2 C2.71034824 3.37562854 1.37310707 4.70766393 0 6 C-0.66 6 -1.32 6 -2 6 C-1.34 4.02 -0.68 2.04 0 0 Z " fill="#197442" transform="translate(48,51)"/>
<path d="M0 0 C0.66 0 1.32 0 2 0 C4.84450614 3.71973879 5.3227506 6.37390802 5 11 C0 3.5 0 3.5 0 0 Z " fill="#DEF9EC" transform="translate(22,44)"/>
<path d="M0 0 C1.32 0 2.64 0 4 0 C4 2.31 4 4.62 4 7 C2 5.1875 2 5.1875 0 3 C0 2.01 0 1.02 0 0 Z " fill="#026D2C" transform="translate(83,28)"/>
<path d="M0 0 C1.32 0.33 2.64 0.66 4 1 C3.67 2.32 3.34 3.64 3 5 C2.01 5 1.02 5 0 5 C0 3.35 0 1.7 0 0 Z " fill="#08492A" transform="translate(171,82)"/>
<path d="M0 0 C4.29 0 8.58 0 13 0 C13 0.33 13 0.66 13 1 C12.07767578 1.09087891 12.07767578 1.09087891 11.13671875 1.18359375 C10.32847656 1.26738281 9.52023438 1.35117188 8.6875 1.4375 C7.88699219 1.51871094 7.08648437 1.59992188 6.26171875 1.68359375 C3.83912821 1.95265693 3.83912821 1.95265693 1 3 C0.67 2.01 0.34 1.02 0 0 Z " fill="#025449" transform="translate(73,68)"/>
<path d="M0 0 C0.33 0 0.66 0 1 0 C0.25 6.625 0.25 6.625 -2 10 C-2.6875 8.375 -2.6875 8.375 -3 6 C-1.5625 2.75 -1.5625 2.75 0 0 Z " fill="#307C53" transform="translate(45,57)"/>
<path d="M0 0 C2.475 0.495 2.475 0.495 5 1 C3.74458443 3.51083114 2.49936512 3.87125446 0 5 C0 3.35 0 1.7 0 0 Z " fill="#096736" transform="translate(201,57)"/>
<path d="M0 0 C-1 1 -1 1 -2.84765625 1.09765625 C-4.8984375 1.06510417 -6.94921875 1.03255208 -9 1 C-9 0.34 -9 -0.32 -9 -1 C-3.375 -2.25 -3.375 -2.25 0 0 Z " fill="#096049" transform="translate(62,6)"/>
<path d="M0 0 C1.65 0.99 3.3 1.98 5 3 C4.67 3.66 4.34 4.32 4 5 C1.36 4.34 -1.28 3.68 -4 3 C-2.68 2.67 -1.36 2.34 0 2 C0 1.34 0 0.68 0 0 Z " fill="#0B5C44" transform="translate(66,123)"/>
<path d="M0 0 C0.33 0 0.66 0 1 0 C1.33 3.96 1.66 7.92 2 12 C0.68 12 -0.64 12 -2 12 C-1.34 11.67 -0.68 11.34 0 11 C0 7.37 0 3.74 0 0 Z " fill="#105554" transform="translate(74,116)"/>
<path d="M0 0 C0 2.31 0 4.62 0 7 C-0.66 6.01 -1.32 5.02 -2 4 C-4.58380177 3.74969023 -4.58380177 3.74969023 -7 4 C-1.7826087 0 -1.7826087 0 0 0 Z " fill="#1A6156" transform="translate(279,80)"/>
</svg>
